# xmcd CD database file generated by Grip 2.95
# 
# Track frame offsets:
#       150
#       15125
#       25706
#       41997
#       44247
#       60103
#       71907
#       86896
#       101896
#       112931
#       126942
#       146550
#       162370
#       177403
#       199284
#       213374
#       227777
#       244148
#       262760
# 
# Disc length: 3707 seconds
# 
# Revision: 3
# Processed by: cddbd v1.5PL3 Copyright (c) Steve Scherf et al.
# Submitted via: Grip 2.95
# 
DISCID=110e7913
DTITLE=Wayne Hancock - Austin 2003-04-26 Disc 2
DYEAR=1900
DGENRE=
TTITLE0=Route 23
TTITLE1="Good night, folks"
TTITLE2=Hoy Hoy Hoy
TTITLE3=
TTITLE4=Blue Moon of Kentucky - Gina Lee
TTITLE5=Cat Fight - Gina Lee
TTITLE6=LIttle Gold Band - Gina Lee
TTITLE7=Someone Who Loves You - Gina Lee
TTITLE8=Where Ya Been? - Gina Lee
TTITLE9=My Window Faces The South - Gina Lee
TTITLE10=Layer of Frost - Gina Lee
TTITLE11=One Cup of Coffee - Gina Lee
TTITLE12=Hard Headed - Gina Lee
TTITLE13=Livin' Free - Gina Lee
TTITLE14=Roly Poly - Gina Lee
TTITLE15=Kentucky Waltz - Gina Lee
TTITLE16=Texas Plains - Gina Lee
TTITLE17=Milk Cow Blues - Gina Lee
TTITLE18=Caddio Daddio - Gina Lee
EXTD=
EXTT0=
EXTT1=
EXTT2=
EXTT3=
EXTT4=
EXTT5=
EXTT6=
EXTT7=
EXTT8=
EXTT9=
EXTT10=
EXTT11=
EXTT12=
EXTT13=
EXTT14=
EXTT15=
EXTT16=
EXTT17=
EXTT18=
PLAYORDER=
